<svg width="429" height="304" viewBox="0 0 429 304" fill="none" xmlns="http://www.w3.org/2000/svg">
<path opacity="0.1" d="M421.334 0.588071C424.676 -1.18118 428.697 1.25618 428.674 5.03729L428.04 110.198C428.017 114.081 423.769 116.457 420.448 114.445L396.101 99.6857L304.35 251.048C297.192 262.855 281.818 266.625 270.011 259.468C258.204 252.311 254.435 236.936 261.592 225.129L353.343 73.7668L328.141 58.4894C324.82 56.4763 324.962 51.612 328.394 49.7951L421.334 0.588071Z" fill="url(#paint0_linear_30_434)"/>
<path opacity="0.1" d="M295.872 20.9145C299.213 19.1452 303.234 21.5826 303.211 25.3637L302.578 130.525C302.554 134.408 298.306 136.784 294.986 134.771L270.638 120.012L178.887 271.374C171.73 283.182 156.356 286.952 144.548 279.794C132.741 272.637 128.972 257.263 136.129 245.456L227.88 94.0932L202.678 78.8159C199.358 76.8028 199.499 71.9384 202.931 70.1215L295.872 20.9145Z" fill="url(#paint1_linear_30_434)"/>
<path opacity="0.1" d="M163.367 41.4057C166.709 39.6364 170.73 42.0738 170.707 45.8549L170.073 151.016C170.05 154.899 165.802 157.275 162.481 155.262L138.134 140.503L46.3828 291.866C39.2255 303.673 23.8511 307.443 12.0439 300.286C0.236739 293.128 -3.53227 277.754 3.62494 265.947L95.3759 114.584L70.1738 99.3071C66.8536 97.294 66.995 92.4296 70.4267 90.6127L163.367 41.4057Z" fill="url(#paint2_linear_30_434)"/>
<defs>
<linearGradient id="paint0_linear_30_434" x1="428.618" y1="131.094" x2="257.967" y2="131.546" gradientUnits="userSpaceOnUse">
<stop stop-color="#0D0D18" stop-opacity="0"/>
<stop offset="1" stop-color="#0D0D18"/>
</linearGradient>
<linearGradient id="paint1_linear_30_434" x1="327.618" y1="152.094" x2="132.504" y2="151.873" gradientUnits="userSpaceOnUse">
<stop stop-color="#0D0D18" stop-opacity="0"/>
<stop offset="1" stop-color="#0D0D18"/>
</linearGradient>
<linearGradient id="paint2_linear_30_434" x1="188.618" y1="172.094" x2="-1.93316e-06" y2="172.364" gradientUnits="userSpaceOnUse">
<stop stop-color="#0D0D18" stop-opacity="0"/>
<stop offset="1" stop-color="#0D0D18"/>
</linearGradient>
</defs>
</svg>
