<svg width="720" height="400" viewBox="0 0 720 400" fill="none" xmlns="http://www.w3.org/2000/svg">
<g clip-path="url(#clip0_30_435)">
<path d="M360 119V122H260.583L259.2 119H360Z" fill="url(#paint0_linear_30_435)"/>
<path d="M340.457 155V158H238.629L240.366 155H340.457Z" fill="url(#paint1_linear_30_435)"/>
<path d="M371.314 142V145H253.226L254.01 143.82L253.029 142H371.314Z" fill="url(#paint2_linear_30_435)"/>
<path d="M519.429 105V108H261.783L260.229 105H519.429Z" fill="url(#paint3_linear_30_435)"/>
<path d="M574.806 63.5985H651.848V65.2581H574.806V63.5985Z" fill="#2B2B37"/>
<path d="M525.086 106L572.234 66.5109L574.247 68.4661L526.628 108L525.086 106Z" fill="#2B2B37"/>
<path d="M559.532 79.941H635.784V81.5991H557.486L559.532 79.941Z" fill="#2B2B37"/>
<path d="M538.457 95.4107H645.338V97.0689H538.457V95.4107Z" fill="#2B2B37"/>
<path d="M367.664 122.558L416.691 74.9242L418.702 76.8794L369.677 124.513L367.664 122.558Z" fill="#2B2B37"/>
<path d="M378.827 143.21L433.908 89.6917L435.92 91.6468L380.838 145.165L378.827 143.21Z" fill="#2B2B37"/>
<path d="M418.307 73.5673H472.704V75.2255H418.307V73.5673Z" fill="#2B2B37"/>
<path d="M436.919 88.2065H493.569V89.8647H436.919V88.2065Z" fill="#2B2B37"/>
<path d="M366.033 126.722C369.93 126.722 373.094 123.647 373.094 119.861C373.094 116.074 369.93 113 366.033 113C362.135 113 358.971 116.074 358.971 119.861C358.971 123.647 362.135 126.722 366.033 126.722Z" fill="#2B2B37"/>
<path d="M346.49 163.722C350.387 163.722 353.551 160.647 353.551 156.861C353.551 153.074 350.387 150 346.49 150C342.592 150 339.429 153.074 339.429 156.861C339.429 160.647 342.592 163.722 346.49 163.722Z" fill="#2B2B37"/>
<path d="M377.347 150.722C381.246 150.722 384.409 147.647 384.409 143.861C384.409 140.074 381.246 137 377.347 137C373.449 137 370.286 140.074 370.286 143.861C370.286 147.647 373.449 150.722 377.347 150.722Z" fill="#2B2B37"/>
<path d="M525.461 111.722C529.359 111.722 532.522 108.647 532.522 104.861C532.522 101.074 529.359 98 525.461 98C521.564 98 518.4 101.074 518.4 104.861C518.4 108.647 521.564 111.722 525.461 111.722Z" fill="#2B2B37"/>
<path d="M579.871 68.758C582.17 66.5241 582.17 62.9079 579.871 60.6754C577.573 58.4415 573.851 58.4415 571.553 60.6754C569.254 62.9079 569.254 66.5241 571.553 68.758C573.851 70.9905 577.573 70.9905 579.871 68.758Z" fill="#2B2B37"/>
<path d="M651.672 67.8551C653.624 67.8551 655.2 66.3194 655.2 64.4276C655.2 62.5371 653.618 61 651.672 61C649.726 61 648.143 62.5371 648.143 64.4276C648.143 66.3194 649.726 67.8551 651.672 67.8551Z" fill="#2B2B37"/>
<path d="M633.013 83.8551C634.964 83.8551 636.541 82.3194 636.541 80.4276C636.541 78.5371 634.96 77 633.013 77C631.067 77 629.486 78.5371 629.486 80.4276C629.486 82.3194 631.067 83.8551 633.013 83.8551Z" fill="#2B2B37"/>
<path d="M645.162 99.6675C647.114 99.6675 648.69 98.1304 648.69 96.2399C648.69 94.3481 647.108 92.8124 645.162 92.8124C643.216 92.8124 641.633 94.3481 641.633 96.2399C641.633 98.1304 643.216 99.6675 645.162 99.6675Z" fill="#2B2B37"/>
<path d="M421.647 80.1465C423.945 77.9126 423.945 74.2965 421.647 72.0626C419.348 69.8301 415.627 69.8301 413.328 72.0626C411.029 74.2965 411.029 77.9126 413.328 80.1465C415.627 82.379 419.348 82.379 421.647 80.1465Z" fill="#2B2B37"/>
<path d="M438.865 94.9124C441.164 92.6785 441.164 89.0637 438.865 86.8298C436.566 84.5959 432.845 84.5959 430.546 86.8298C428.248 89.0637 428.248 92.6785 430.546 94.9124C432.845 97.1463 436.566 97.1463 438.865 94.9124Z" fill="#2B2B37"/>
<path d="M472.527 77.8296C474.479 77.8296 476.054 76.2925 476.054 74.4021C476.054 72.5116 474.473 70.9745 472.527 70.9745C470.581 70.9745 468.999 72.5116 468.999 74.4021C468.999 76.2925 470.581 77.8296 472.527 77.8296Z" fill="#2B2B37"/>
<path d="M493.398 92.4633C495.35 92.4633 496.926 90.9262 496.926 89.0357C496.926 87.1453 495.344 85.6082 493.398 85.6082C491.452 85.6082 489.87 87.1453 489.87 89.0357C489.87 90.9262 491.452 92.4633 493.398 92.4633Z" fill="#2B2B37"/>
<path d="M-3.08569 293H161.486V299H-3.08569V293Z" fill="url(#paint4_linear_30_435)"/>
<path d="M353.829 192V197H-0.945703L-3.08569 192H353.829Z" fill="url(#paint5_linear_30_435)"/>
<path d="M436.673 118.204H561.32V120.889H436.673V118.204Z" fill="#2B2B37"/>
<path d="M357.835 195.476L432.512 122.916L435.768 126.079L361.091 198.637L357.835 195.476Z" fill="#2B2B37"/>
<path d="M411.961 144.644H535.329V147.327H411.961V144.644Z" fill="#2B2B37"/>
<path d="M387.991 169.673H550.787V172.356H387.991V169.673Z" fill="#2B2B37"/>
<path d="M253.402 216.667H372.682V219.35H253.402V216.667Z" fill="#2B2B37"/>
<path d="M166.859 295.988L246.744 218.37L250 221.534L170.115 299.152L166.859 295.988Z" fill="#2B2B37"/>
<path d="M227.644 237.284H286.506V239.967H227.644V237.284Z" fill="#2B2B37"/>
<path d="M204.915 260.835H298.721V263.52H204.915V260.835Z" fill="#2B2B37"/>
<path d="M98.2286 271L100.8 268.5L201.841 357.505L198.585 360.668L98.2286 271Z" fill="#2B2B37"/>
<path d="M165.6 326.605H251.578V329.288H169.103L165.6 326.605Z" fill="#2B2B37"/>
<path d="M94.5088 202.606C100.815 202.606 105.932 207.58 105.933 213.706C105.933 219.832 100.815 224.806 94.5088 224.806C89.0123 224.806 84.4199 221.027 83.3311 216H-1.8584L-3.08594 211H83.4287C84.6735 206.18 89.1638 202.606 94.5088 202.606Z" fill="url(#paint6_linear_30_435)"/>
<path d="M97.8789 257.079C104.185 257.079 109.304 262.053 109.304 268.179C109.304 274.305 104.185 279.279 97.8789 279.279C92.5765 279.279 88.1149 275.762 86.8291 271H-3.08594L-1.34863 266H86.6768C87.7201 260.916 92.3409 257.079 97.8789 257.079Z" fill="url(#paint7_linear_30_435)"/>
<path d="M142.953 230C149.261 230 154.38 234.974 154.38 241.1C154.38 247.226 149.261 252.2 142.953 252.2C137.314 252.2 132.629 248.222 131.7 243H-2.84082L-1.86523 241.426L-3.08594 239H131.736C132.748 233.877 137.387 230 142.953 230Z" fill="url(#paint8_linear_30_435)"/>
<path d="M168.798 304.202C175.104 304.202 180.222 299.228 180.222 293.1C180.222 286.974 175.104 282 168.798 282C162.49 282 157.371 286.974 157.371 293.1C157.371 299.228 162.49 304.202 168.798 304.202Z" fill="#2B2B37"/>
<path d="M357.024 205.2C363.33 205.2 368.448 200.226 368.448 194.1C368.448 187.974 363.33 183 357.024 183C350.718 183 345.6 187.974 345.6 194.1C345.6 200.226 350.718 205.2 357.024 205.2Z" fill="#2B2B37"/>
<path d="M443.104 129.787C446.824 126.173 446.824 120.323 443.104 116.711C439.387 113.096 433.365 113.096 429.647 116.711C425.927 120.323 425.927 126.173 429.647 129.787C433.365 133.399 439.387 133.399 443.104 129.787Z" fill="#2B2B37"/>
<path d="M561.034 125.091C564.192 125.091 566.743 122.606 566.743 119.545C566.743 116.487 564.182 114 561.034 114C557.886 114 555.326 116.487 555.326 119.545C555.326 122.606 557.886 125.091 561.034 125.091Z" fill="#2B2B37"/>
<path d="M535.054 151.531C538.211 151.531 540.762 149.047 540.762 145.986C540.762 142.927 538.204 140.44 535.054 140.44C531.905 140.44 529.347 142.927 529.347 145.986C529.347 149.047 531.905 151.531 535.054 151.531Z" fill="#2B2B37"/>
<path d="M550.502 176.56C553.659 176.56 556.21 174.073 556.21 171.014C556.21 167.954 553.65 165.469 550.502 165.469C547.353 165.469 544.793 167.954 544.793 171.014C544.793 174.073 547.353 176.56 550.502 176.56Z" fill="#2B2B37"/>
<path d="M254.774 226.82C258.492 223.205 258.492 217.355 254.774 213.743C251.054 210.129 245.034 210.129 241.315 213.743C237.595 217.355 237.595 223.205 241.315 226.82C245.034 230.434 251.054 230.434 254.774 226.82Z" fill="#2B2B37"/>
<path d="M193.158 365.3C196.878 368.912 202.898 368.912 206.618 365.3C210.338 361.686 210.338 355.835 206.618 352.224C202.898 348.609 196.878 348.609 193.158 352.224C189.438 355.835 189.438 361.686 193.158 365.3Z" fill="#2B2B37"/>
<path d="M372.396 223.563C375.554 223.563 378.105 221.076 378.105 218.017C378.105 214.959 375.545 212.472 372.396 212.472C369.248 212.472 366.69 214.959 366.69 218.017C366.69 221.076 369.248 223.563 372.396 223.563Z" fill="#2B2B37"/>
<path d="M282.394 244.091C285.552 244.091 288.101 241.604 288.101 238.545C288.101 235.487 285.543 233 282.394 233C279.246 233 276.686 235.487 276.686 238.545C276.686 241.604 279.246 244.091 282.394 244.091Z" fill="#2B2B37"/>
<path d="M298.437 267.733C301.595 267.733 304.144 265.246 304.144 262.185C304.144 259.127 301.586 256.64 298.437 256.64C295.289 256.64 292.729 259.127 292.729 262.185C292.729 265.246 295.289 267.733 298.437 267.733Z" fill="#2B2B37"/>
<path d="M251.294 333.492C254.451 333.492 257.002 331.005 257.002 327.947C257.002 324.888 254.442 322.401 251.294 322.401C248.145 322.401 245.587 324.888 245.587 327.947C245.587 331.005 248.145 333.492 251.294 333.492Z" fill="#2B2B37"/>
<path d="M224.229 168.629C224.229 168.629 260.229 151.349 260.229 125.429V95.1886L224.229 82.2286L188.229 95.1886V125.429C188.229 151.349 224.229 168.629 224.229 168.629Z" stroke="#E5E5E5" stroke-width="3" stroke-linecap="round" stroke-linejoin="round"/>
<path d="M235.429 115H213.029C211.261 115 209.829 116.628 209.829 118.636V131.364C209.829 133.372 211.261 135 213.029 135H235.429C237.196 135 238.629 133.372 238.629 131.364V118.636C238.629 116.628 237.196 115 235.429 115Z" stroke="#E5E5E5" stroke-width="3" stroke-linecap="round" stroke-linejoin="round"/>
<path d="M217.029 115V109.667C217.029 107.899 217.787 106.203 219.137 104.953C220.488 103.702 222.319 103 224.229 103C226.138 103 227.97 103.702 229.32 104.953C230.67 106.203 231.429 107.899 231.429 109.667V115" stroke="#E5E5E5" stroke-width="3" stroke-linecap="round" stroke-linejoin="round"/>
</g>
<defs>
<linearGradient id="paint0_linear_30_435" x1="259.2" y1="120.5" x2="360" y2="120.5" gradientUnits="userSpaceOnUse">
<stop stop-color="#E5E5E5"/>
<stop offset="1" stop-color="#2B2B37"/>
</linearGradient>
<linearGradient id="paint1_linear_30_435" x1="340.457" y1="156.5" x2="238.629" y2="156.5" gradientUnits="userSpaceOnUse">
<stop stop-color="#2B2B37"/>
<stop offset="1" stop-color="#E5E5E5"/>
</linearGradient>
<linearGradient id="paint2_linear_30_435" x1="371.314" y1="143.5" x2="253.029" y2="143.5" gradientUnits="userSpaceOnUse">
<stop stop-color="#2B2B37"/>
<stop offset="1" stop-color="#E5E5E5"/>
</linearGradient>
<linearGradient id="paint3_linear_30_435" x1="519.429" y1="106.5" x2="260.229" y2="106.5" gradientUnits="userSpaceOnUse">
<stop stop-color="#2B2B37"/>
<stop offset="1" stop-color="#E5E5E5"/>
</linearGradient>
<linearGradient id="paint4_linear_30_435" x1="-3.08569" y1="296" x2="161.486" y2="296" gradientUnits="userSpaceOnUse">
<stop stop-color="#E5E5E5"/>
<stop offset="1" stop-color="#2B2B37"/>
</linearGradient>
<linearGradient id="paint5_linear_30_435" x1="-3.08569" y1="194.5" x2="353.829" y2="194.5" gradientUnits="userSpaceOnUse">
<stop stop-color="#E5E5E5"/>
<stop offset="1" stop-color="#2B2B37"/>
</linearGradient>
<linearGradient id="paint6_linear_30_435" x1="-3.08594" y1="213.706" x2="105.933" y2="213.706" gradientUnits="userSpaceOnUse">
<stop stop-color="#E5E5E5"/>
<stop offset="1" stop-color="#2B2B37"/>
</linearGradient>
<linearGradient id="paint7_linear_30_435" x1="-3.08594" y1="268.179" x2="109.304" y2="268.179" gradientUnits="userSpaceOnUse">
<stop stop-color="#E5E5E5"/>
<stop offset="0.775167" stop-color="#2B2B37"/>
</linearGradient>
<linearGradient id="paint8_linear_30_435" x1="-3.08594" y1="241.1" x2="154.38" y2="241.1" gradientUnits="userSpaceOnUse">
<stop stop-color="#E5E5E5"/>
<stop offset="1" stop-color="#2B2B37"/>
</linearGradient>
<clipPath id="clip0_30_435">
<rect width="720" height="400" rx="12" fill="white"/>
</clipPath>
</defs>
</svg>
