<svg width="110" height="40" viewBox="0 0 110 40" fill="none" xmlns="http://www.w3.org/2000/svg">
<path d="M91.7625 2.53435L89.4613 10.9627M93.0613 14.4L99.0613 11.6M95.2627 18.7887L107.861 18.7887" stroke="#090910" stroke-width="4" stroke-linecap="round" stroke-linejoin="bevel"/>
<path d="M18.2375 2.52111L20.5387 10.9495M16.9387 14.3867L10.9387 11.5867M14.7373 18.7754L2.13876 18.7754" stroke="#090910" stroke-width="4" stroke-linecap="round" stroke-linejoin="bevel"/>
<circle cx="31.8612" cy="26" r="12" fill="#E5E5E5" stroke="#090910" stroke-width="4"/>
<path d="M36.0612 27.6742C36.0612 25.7559 34.1112 25.0082 32.5442 24.4082C31.5021 24.0101 30.5163 23.6315 30.5163 23.0857C30.5163 22.1844 31.7339 22.1392 31.9784 22.1392C32.8396 22.1392 33.2681 22.4605 33.6472 22.7423C33.9373 22.9595 34.2385 23.184 34.6553 23.184C35.4333 23.184 35.7881 22.6398 35.7881 22.1366C35.7881 21.1311 34.545 20.4202 33.2256 20.1215V19.5846C33.2256 18.8763 32.6444 18.3 31.9306 18.3C31.2163 18.3 30.6351 18.8763 30.6351 19.5846V20.1662C29.0585 20.6205 28.0912 21.7721 28.0912 23.2219C28.0912 25.014 29.8741 25.7502 31.447 26.398C32.5739 26.8623 33.6371 27.3009 33.6371 27.9855C33.6371 28.4861 33.004 29.0272 31.9784 29.0272C30.9448 29.0272 30.3525 28.6176 29.829 28.2548C29.4684 28.005 29.1264 27.7678 28.7191 27.7678C28.1262 27.7678 27.6612 28.2642 27.6612 28.8952C27.6612 29.8249 28.944 30.7494 30.6335 31.0743V31.718C30.6335 32.4247 31.2147 33 31.9306 33C32.6444 33 33.2246 32.4247 33.2246 31.718L33.2203 31.0365C35.0064 30.6032 36.0612 29.3638 36.0612 27.6742Z" fill="#090910"/>
<circle cx="79.0612" cy="26" r="12" fill="#E5E5E5" stroke="#090910" stroke-width="4"/>
<path d="M83.2612 27.6742C83.2612 25.7559 81.3113 25.0082 79.7443 24.4082C78.7022 24.0101 77.7164 23.6315 77.7164 23.0857C77.7164 22.1844 78.934 22.1392 79.1784 22.1392C80.0396 22.1392 80.4681 22.4605 80.8473 22.7423C81.1374 22.9595 81.4386 23.184 81.8554 23.184C82.6334 23.184 82.9881 22.6398 82.9881 22.1366C82.9881 21.1311 81.7451 20.4202 80.4257 20.1215V19.5846C80.4257 18.8763 79.8445 18.3 79.1307 18.3C78.4164 18.3 77.8352 18.8763 77.8352 19.5846V20.1662C76.2586 20.6205 75.2913 21.7721 75.2913 23.2219C75.2913 25.014 77.0742 25.7502 78.6471 26.398C79.774 26.8623 80.8372 27.3009 80.8372 27.9855C80.8372 28.4861 80.204 29.0272 79.1784 29.0272C78.1449 29.0272 77.5525 28.6176 77.0291 28.2548C76.6685 28.005 76.3265 27.7678 75.9192 27.7678C75.3263 27.7678 74.8612 28.2642 74.8612 28.8952C74.8612 29.8249 76.144 30.7494 77.8336 31.0743V31.718C77.8336 32.4247 78.4148 33 79.1307 33C79.8445 33 80.4246 32.4247 80.4246 31.718L80.4204 31.0365C82.2065 30.6032 83.2612 29.3638 83.2612 27.6742Z" fill="#090910"/>
<circle cx="55.0612" cy="18" r="16" fill="#E5E5E5" stroke="#090910" stroke-width="4"/>
<path d="M61.0612 20.7541C61.0612 18.1442 58.4613 17.1268 56.3719 16.3105C54.9826 15.7689 53.6681 15.2538 53.6681 14.5112C53.6681 13.2849 55.2915 13.2234 55.6175 13.2234C56.7658 13.2234 57.3371 13.6605 57.8427 14.044C58.2294 14.3395 58.631 14.645 59.1868 14.645C60.2241 14.645 60.6971 13.9045 60.6971 13.2198C60.6971 11.8519 59.0397 10.8846 57.2805 10.4783V9.74781C57.2805 8.78412 56.5056 8 55.5539 8C54.6014 8 53.8265 8.78412 53.8265 9.74781V10.5391C51.7244 11.1572 50.4347 12.724 50.4347 14.6965C50.4347 17.1347 52.8118 18.1363 54.909 19.0177C56.4115 19.6494 57.8292 20.2461 57.8292 21.1776C57.8292 21.8587 56.985 22.5949 55.6175 22.5949C54.2394 22.5949 53.4496 22.0376 52.7517 21.5439C52.2709 21.2041 51.8149 20.8814 51.2718 20.8814C50.4813 20.8814 49.8612 21.5568 49.8612 22.4153C49.8612 23.6802 51.5716 24.9379 53.8244 25.3801V26.2558C53.8244 27.2173 54.5993 28 55.5539 28C56.5056 28 57.2791 27.2173 57.2791 26.2558L57.2735 25.3286C59.6549 24.739 61.0612 23.0528 61.0612 20.7541Z" fill="#090910"/>
</svg>
