<svg width="89" height="40" viewBox="0 0 89 40" fill="none" xmlns="http://www.w3.org/2000/svg">
<path d="M33.2032 15.8986C32.8528 17.1482 32.6641 18.4651 32.6641 19.8263C32.6641 26.426 37.0814 31.9967 43.1249 33.7517C44.523 34.1577 45.6345 35.3495 45.6345 36.8052C45.6345 38.3774 44.36 39.6519 42.7879 39.6519H21.5074C19.8378 39.6519 18.484 38.3004 18.484 36.6335V36.5191C18.484 34.8523 19.8378 33.5008 21.5074 33.5008H27.9961C29.6608 33.4945 31.0077 32.1458 31.0077 30.4817C31.0077 28.7518 29.6032 27.349 27.8698 27.349H24.2532H24.2511H3.45464C1.78509 27.349 0.431274 25.9982 0.431274 24.3306V24.2163C0.431274 22.5494 1.78509 21.1986 3.45464 21.1986H25.2378C25.9699 21.1979 26.6319 20.9013 27.1121 20.4223C27.6055 19.9289 27.9059 19.2434 27.8886 18.4879C27.8566 17.0394 26.6326 15.8986 25.1816 15.8986H14.2165C12.7669 15.8986 11.5442 14.7592 11.5102 13.3127C11.4922 12.5559 11.7927 11.8683 12.286 11.3755C12.7669 10.8952 13.4303 10.5993 14.163 10.5993H27.5333C28.2661 10.5993 28.9287 10.3027 29.4096 9.82304C29.903 9.32957 30.2028 8.64411 30.1861 7.88934C30.1542 6.4408 28.9308 5.29999 27.4799 5.29999H21.1382C19.672 5.29999 18.484 4.11274 18.484 2.64965C18.484 1.18656 19.672 0 21.1382 0H47.2271C47.2292 0 47.2306 0.000693073 47.2327 0.000693073C57.236 0.0222276 65.5031 7.42921 66.8534 17.0503H61.4466C60.1494 10.3696 54.2589 5.32494 47.1883 5.32494C42.6779 5.32494 38.6483 7.37785 35.9837 10.5993C34.7152 12.1324 33.7563 13.9309 33.2032 15.8986Z" fill="#090910"/>
<path fill-rule="evenodd" clip-rule="evenodd" d="M67.9215 4.63793C69.1927 4.97012 69.954 6.26998 69.6218 7.54124L67.1156 17.1322C66.7834 18.4034 65.4836 19.1647 64.2123 18.8325L54.6213 16.3263C53.3501 15.9941 52.5888 14.6943 52.921 13.423C53.2532 12.1517 54.5531 11.3905 55.8243 11.7227L63.1134 13.6274L65.0182 6.33826C65.3504 5.067 66.6502 4.30574 67.9215 4.63793Z" fill="#090910"/>
<path d="M58.6869 36.5525V39.6519H48.7039V37.0579C51.661 32.2217 53.4165 29.2309 53.9705 28.0855C54.532 26.9326 54.8127 26.0342 54.8127 25.3904C54.8127 24.8963 54.7266 24.5295 54.5545 24.2899C54.3898 24.0428 54.1352 23.9193 53.7908 23.9193C53.4465 23.9193 53.1882 24.0541 53.016 24.3236C52.8513 24.5931 52.769 25.1284 52.769 25.9294V27.6588H48.7039V26.9962C48.7039 25.9781 48.7563 25.177 48.8611 24.5931C48.9659 24.0017 49.2242 23.4215 49.6359 22.8525C50.0477 22.2836 50.5829 21.8531 51.2417 21.5611C51.9005 21.2692 52.6904 21.1232 53.6112 21.1232C55.4154 21.1232 56.7779 21.5724 57.6987 22.4707C58.627 23.3616 59.0912 24.492 59.0912 25.862C59.0912 26.9026 58.8292 28.0031 58.3051 29.1635C57.7886 30.3239 56.2576 32.7869 53.7122 36.5525H58.6869Z" fill="#090910"/>
<path d="M69.2315 21.4713V33.3521H70.5229V36.4515H69.2315V39.6519H64.6947V36.4515H59.3046V33.3521L63.2237 21.4713H69.2315ZM64.6947 33.3521V25.615L62.6959 33.3521H64.6947Z" fill="#090910"/>
<path d="M79.6301 21.1232L74.2399 40H70.8036L76.2275 21.1232H79.6301Z" fill="#090910"/>
<path d="M88.5688 21.4713V25.4353L85.6716 39.6519H81.1573L84.3802 24.7391H79.8996V21.4713H88.5688Z" fill="#090910"/>
</svg>
