<svg width="167" height="40" viewBox="0 0 167 40" fill="none" xmlns="http://www.w3.org/2000/svg">
<path d="M145.849 27.2217C145.318 27.8608 144.788 28.509 144.266 29.1562C144.122 29.3256 144.066 29.4866 144.137 29.5195C144.217 29.5437 144.402 29.4387 144.547 29.2607C145.069 28.6702 145.592 28.0796 146.122 27.4971C146.13 27.5051 146.146 27.5211 146.155 27.5293C146.492 28.8724 147.955 30.9927 149.498 32.6514C150.069 33.2661 150.655 33.7761 151.274 34.2695C151.041 33.9865 150.816 33.7111 150.583 33.4199C151.347 34.1884 152.102 34.7307 152.865 35.2646C152.914 35.3293 152.962 35.3943 153.018 35.459C154.031 36.993 155.47 38.4916 156.778 40H134.74C134.299 40 133.865 39.9628 133.443 39.8945C134.32 38.8418 135.208 37.7917 136.157 36.6807C138.48 33.9622 140.802 31.5831 143.221 29.0508C143.478 28.8243 143.736 28.5899 143.969 28.3311C144.202 28.0722 144.435 27.8048 144.668 27.5459C144.917 27.2871 145.166 27.0359 145.415 26.7852L145.849 27.2217ZM141.197 29.8682C141.148 30.038 141.156 30.1752 141.237 30.248C141.253 30.2642 141.285 30.281 141.309 30.2891C140.634 30.9848 139.95 31.6806 139.259 32.3926C136.912 34.8063 134.697 37.2438 132.556 39.6982C132.436 39.6646 132.317 39.6288 132.199 39.5898C132.299 39.4942 132.4 39.3993 132.5 39.3018C134.863 36.9879 136.84 34.5852 138.809 32.1904C139.621 31.4218 140.417 30.653 141.197 29.8682ZM130.114 38.541C129.997 38.4596 129.883 38.3754 129.772 38.2881C130.023 37.9785 130.275 37.6706 130.524 37.3604C130.749 37.1176 130.966 36.8824 131.191 36.6396C131.384 36.68 131.633 36.6236 131.922 36.4941C131.318 37.1759 130.715 37.858 130.114 38.541ZM143.938 29.876C143.913 29.836 143.833 29.8687 143.753 29.9492C141.23 32.4007 138.73 34.8932 136.246 37.4014C136.166 37.4821 136.118 37.5789 136.142 37.6113C136.166 37.6437 136.255 37.6034 136.327 37.5225C138.819 35.0143 141.302 32.5384 143.825 30.0869C143.906 30.006 143.954 29.9083 143.938 29.876ZM130.99 32.1572C130.17 33.4922 129.382 34.8111 128.586 36.1299C128.444 36.288 128.304 36.4472 128.162 36.6055C128.001 36.3785 127.85 36.143 127.712 35.8994C128.596 34.7834 129.532 33.6721 130.579 32.5703C130.716 32.4328 130.853 32.2867 130.99 32.1572ZM129.23 33.5654C128.712 34.2901 128.174 35.0069 127.618 35.7305C127.583 35.6636 127.548 35.5963 127.514 35.5283C128.072 34.8692 128.641 34.2141 129.23 33.5654ZM136.688 23.1602C136.415 23.4351 136.262 23.7505 136.342 23.8721C136.382 23.9125 136.462 23.9132 136.559 23.8809C135.675 25.0214 134.847 26.1782 134.02 27.335C133.739 27.6505 133.513 27.9585 133.336 28.2578C132.147 29.3581 130.973 30.4831 129.776 31.5996L129.471 31.8662C129.077 32.2303 128.787 32.6674 128.723 32.9668C128.699 33.0638 128.707 33.129 128.723 33.1855C128.239 33.7814 127.75 34.3762 127.262 34.9717C127.168 34.742 127.084 34.5073 127.012 34.2676C129.311 31.285 131.72 28.3158 134.397 25.377C134.823 24.9078 135.249 24.4553 135.683 24.0186C135.739 23.9781 135.796 23.9287 135.852 23.8721C136.27 23.4919 136.679 23.1116 137.089 22.7314C136.953 22.877 136.824 23.0147 136.688 23.1602ZM126.801 6.6084C127.798 7.52533 128.795 8.45071 129.848 9.43848C132.452 11.89 134.71 14.3257 137.121 16.8662C137.338 17.1331 137.556 17.3999 137.805 17.6426C137.933 17.7719 138.062 17.9012 138.198 18.0225C138.03 18.2004 137.869 18.3787 137.7 18.5566C137.459 18.3382 137.218 18.1195 136.977 17.9092C136.816 17.7558 136.656 17.6995 136.615 17.7637C136.591 17.8446 136.688 18.0308 136.857 18.1846C137.065 18.3867 137.266 18.5889 137.475 18.791C137.459 18.8071 137.443 18.8237 137.427 18.8398C134.59 22.3511 131.946 25.7979 129.326 29.3496C128.329 30.7023 127.524 31.9928 126.779 33.2637C126.706 32.8285 126.666 32.3815 126.666 31.9258V8.07422C126.666 7.57356 126.714 7.08385 126.801 6.6084ZM166.596 7.02344C166.641 7.36747 166.666 7.718 166.666 8.07422V30.2031C163.679 27.1293 160.658 24.1001 157.422 21.0488C156.586 20.2641 155.775 19.4955 154.963 18.7432C156.072 18.0473 157.318 16.995 158.37 15.9189C158.957 15.3203 159.44 14.7058 159.898 14.0586C159.624 14.3013 159.358 14.5434 159.085 14.7861C159.808 13.9852 160.324 13.2008 160.814 12.416C160.878 12.3675 160.934 12.3105 160.998 12.2539C162.726 10.9836 164.374 9.14661 166.062 7.60938C165.965 7.58511 165.86 7.56919 165.764 7.54492C166.056 7.32112 166.305 7.23571 166.596 7.02344ZM128.933 9.37402C128.901 9.39852 128.942 9.48762 129.014 9.56836C131.393 12.1736 133.747 14.7872 136.07 17.4248C136.15 17.5137 136.238 17.5619 136.279 17.5459C136.311 17.5216 136.279 17.4405 136.206 17.3516C133.884 14.7059 131.513 12.0844 129.134 9.4873C129.054 9.39849 128.965 9.34989 128.933 9.37402ZM127.389 5.65137C129.583 8.12718 131.881 10.2153 134.18 12.3027C134.903 13.1523 135.643 13.9856 136.382 14.8027C136.213 14.7461 136.076 14.7544 136.004 14.8271C135.988 14.8434 135.972 14.8753 135.964 14.8994C135.305 14.1875 134.638 13.4752 133.963 12.7471C131.673 10.291 129.354 7.96736 127.016 5.7168C127.053 5.59634 127.093 5.47737 127.135 5.35938C127.219 5.45618 127.303 5.55426 127.389 5.65137ZM132.604 0.287109C135.482 2.73821 138.339 5.29491 141.164 8.12793C141.614 8.58088 142.04 9.02556 142.466 9.47852C142.506 9.53515 142.547 9.60059 142.603 9.65723C142.956 10.094 143.326 10.5225 143.688 10.9512C143.551 10.8136 143.414 10.6678 143.278 10.5303C143.012 10.2472 142.707 10.0774 142.586 10.1582C142.546 10.1987 142.538 10.2802 142.571 10.3691C141.47 9.43065 140.368 8.54858 139.251 7.6748C138.954 7.3836 138.649 7.14045 138.367 6.94629C137.323 5.70029 136.253 4.47061 135.2 3.22461L134.951 2.90039C134.606 2.49613 134.188 2.18131 133.891 2.1084C133.803 2.08419 133.73 2.08355 133.674 2.09961C133.087 1.5724 132.501 1.04074 131.914 0.509766C132.14 0.425572 132.369 0.351243 132.604 0.287109ZM154.075 0C151.551 2.73246 149.055 5.50101 146.548 8.43457C146.195 8.84719 145.841 9.26051 145.495 9.66504C142.827 7.3268 140.159 5.08532 137.427 2.86035C136.1 1.77883 134.829 0.90132 133.574 0.0839844C133.955 0.0289154 134.345 0 134.74 0H154.075ZM166.589 6.9668C166.505 6.99582 166.421 7.0237 166.334 7.05957C166.342 7.05151 166.351 7.04299 166.359 7.04297C166.432 6.99972 166.506 6.95148 166.58 6.90137C166.583 6.92313 166.586 6.94498 166.589 6.9668ZM129.39 3.73438C129.615 3.96901 129.848 4.20384 130.073 4.43848C130.025 4.63261 130.065 4.88341 130.186 5.18262C129.539 4.54557 128.89 3.91431 128.24 3.28418C128.326 3.168 128.414 3.05368 128.506 2.94238C128.801 3.20687 129.094 3.47207 129.39 3.73438ZM130.973 0.932617C132.054 1.87786 133.129 2.87402 134.188 3.98535C134.324 4.12289 134.454 4.26843 134.582 4.41406C133.288 3.54027 132.018 2.68253 130.74 1.83301C130.578 1.67502 130.415 1.51809 130.253 1.36035C130.485 1.20535 130.725 1.06348 130.973 0.932617ZM131.348 0.74707C131.987 1.34349 132.622 1.95054 133.248 2.57715C132.544 2.01706 131.847 1.43893 131.145 0.84375C131.212 0.810335 131.28 0.778658 131.348 0.74707Z" fill="url(#paint0_linear_1_1732)"/>
<path d="M10.9668 34.9544C8.63456 34.9544 6.64298 34.6399 4.99206 34.011C3.34114 33.3821 2.0964 32.5435 1.25784 31.4953C0.419281 30.4209 0 29.2417 0 27.9576C0 27.748 0.0262051 27.4335 0.0786152 27.0142C0.10482 26.7784 0.20964 26.5819 0.393076 26.4246C0.602716 26.2674 0.825459 26.1888 1.0613 26.1888H6.32852C6.66919 26.1888 6.91813 26.2412 7.07536 26.346C7.2588 26.4508 7.44223 26.6343 7.62567 26.8963C7.83531 27.5252 8.25459 28.0493 8.88351 28.4686C9.53864 28.8617 10.4296 29.0582 11.5564 29.0582C12.9715 29.0582 14.1114 28.8486 14.9762 28.4293C15.8672 27.9838 16.4044 27.3811 16.5878 26.6212C16.614 26.5163 16.6271 26.3722 16.6271 26.1888C16.6271 25.5337 16.2209 25.0227 15.4086 24.6558C14.5962 24.2889 13.1287 23.8696 11.0061 23.3979C5.79132 22.3235 3.18391 20.0175 3.18391 16.4798C3.18391 15.8509 3.26253 15.2089 3.41976 14.5537C3.94386 12.0905 5.25411 10.1644 7.35052 8.77552C9.47313 7.36045 12.1985 6.65291 15.5265 6.65291C17.5181 6.65291 19.3 7.00668 20.8723 7.71422C22.4446 8.42175 23.6632 9.32583 24.5279 10.4264C25.4189 11.5008 25.8644 12.5884 25.8644 13.689C25.8644 13.82 25.8382 14.0427 25.7858 14.3572C25.7334 14.593 25.6285 14.8027 25.4713 14.9861C25.3141 15.1433 25.1175 15.222 24.8817 15.222H19.3C18.7235 15.222 18.3304 14.9861 18.1208 14.5144C18.0684 13.9641 17.7539 13.5055 17.1774 13.1387C16.6271 12.7456 15.8934 12.549 14.9762 12.549C13.8494 12.549 12.9322 12.7456 12.2247 13.1387C11.5433 13.5317 11.1109 14.1082 10.9275 14.8682C10.9013 14.973 10.8882 15.1171 10.8882 15.3006C10.8882 15.9295 11.242 16.4405 11.9495 16.8336C12.6832 17.2004 13.9804 17.5804 15.841 17.9735C18.8021 18.5238 20.964 19.3493 22.3267 20.4499C23.6894 21.5505 24.3707 23.0049 24.3707 24.813C24.3707 25.5468 24.3052 26.1888 24.1742 26.7391C23.5977 29.4382 22.1826 31.4822 19.9289 32.8711C17.7015 34.2599 14.7141 34.9544 10.9668 34.9544Z" fill="white"/>
<path d="M30.4311 34.5613C30.0118 34.5613 29.6843 34.4434 29.4484 34.2075C29.2126 33.9455 29.1078 33.631 29.134 33.2641L29.9987 7.95006C30.025 7.71422 30.1298 7.50458 30.3132 7.32114C30.5228 7.13771 30.7587 7.04599 31.0207 7.04599H36.0128C36.7728 7.04599 37.1134 7.37355 37.0348 8.02868L36.3666 22.6511L40.8476 14.2C41.2145 13.4924 41.7124 13.1387 42.3413 13.1387H45.2894C45.9445 13.1387 46.3114 13.4924 46.39 14.2L47.3334 22.769L52.9151 7.95006C53.0199 7.6094 53.1771 7.37355 53.3868 7.24253C53.6226 7.1115 53.9371 7.04599 54.3301 7.04599H59.6367C59.8463 7.04599 60.0035 7.1115 60.1083 7.24253C60.2394 7.34735 60.3049 7.49147 60.3049 7.67491C60.3049 7.75352 60.2787 7.87145 60.2263 8.02868L50.989 33.2641C50.8318 33.631 50.5828 33.9455 50.2421 34.2075C49.9277 34.4434 49.5608 34.5613 49.1415 34.5613H45.0929C44.6736 34.5613 44.3591 34.4565 44.1495 34.2468C43.966 34.0372 43.8612 33.8013 43.835 33.5393L41.8696 22.6511L36.0914 33.5393C35.7245 34.2206 35.1611 34.5613 34.4012 34.5613H30.4311Z" fill="white"/>
<path d="M56.1653 34.5613C55.9295 34.5613 55.746 34.4958 55.615 34.3648C55.484 34.2075 55.4185 34.0241 55.4185 33.8144C55.4185 33.6834 55.4578 33.5393 55.5364 33.3821L70.0409 8.18591C70.4864 7.42596 71.0891 7.04599 71.849 7.04599H78.2169C79.003 7.04599 79.4485 7.42596 79.5533 8.18591L83.3661 33.3821C83.3924 33.7489 83.3137 34.0372 83.1303 34.2468C82.9469 34.4565 82.711 34.5613 82.4228 34.5613H77.4307C76.7232 34.5613 76.317 34.2468 76.2122 33.6179L75.5833 29.8837H65.324L63.0441 33.6965C62.6773 34.273 62.1794 34.5613 61.5504 34.5613H56.1653ZM68.1934 23.9876H75.1902L73.8144 13.9641L68.1934 23.9876Z" fill="white"/>
<path d="M87.1243 34.5613C86.8361 34.5613 86.6133 34.4696 86.4561 34.2861C86.2989 34.1027 86.2465 33.8669 86.2989 33.5786L91.7233 8.06799C91.7757 7.77973 91.9199 7.54388 92.1557 7.36045C92.3915 7.15081 92.6536 7.04599 92.9418 7.04599H103.476C106.411 7.04599 108.77 7.6487 110.552 8.85414C112.36 10.0596 113.264 11.8153 113.264 14.1214C113.264 14.7765 113.185 15.4578 113.028 16.1653C112.373 19.2051 111.036 21.4588 109.019 22.9263C107.027 24.3675 104.302 25.0882 100.843 25.0882H95.7327L93.9245 33.5786C93.8721 33.8669 93.728 34.1027 93.4921 34.2861C93.2825 34.4696 93.0336 34.5613 92.7453 34.5613H87.1243ZM101.118 19.4672C102.166 19.4672 103.083 19.192 103.869 18.6417C104.656 18.0652 105.166 17.2267 105.402 16.126C105.507 15.5495 105.56 15.1565 105.56 14.9468C105.56 13.4531 104.616 12.7063 102.729 12.7063H98.2484L96.794 19.4672H101.118Z" fill="white"/>
<defs>
<linearGradient id="paint0_linear_1_1732" x1="126.666" y1="20" x2="167.387" y2="9.86185" gradientUnits="userSpaceOnUse">
<stop stop-color="#48F955"/>
<stop offset="1" stop-color="#2B9332"/>
</linearGradient>
</defs>
</svg>
