<svg width="40" height="40" viewBox="0 0 40 40" fill="none" xmlns="http://www.w3.org/2000/svg">
<path d="M16.0999 27.1641C16.0642 27.29 16.0706 27.3923 16.1301 27.4463C16.1422 27.4582 16.1661 27.4696 16.1838 27.4756C15.6829 27.9919 15.1752 28.5088 14.6624 29.0371C12.8492 30.9015 11.1434 32.7858 9.49438 34.6826H9.10474C9.28491 34.5134 9.46634 34.3412 9.64771 34.1641C11.4008 32.4471 12.8674 30.6637 14.3284 28.8867C14.9306 28.3164 15.5215 27.7463 16.0999 27.1641ZM19.553 25.2002C19.1594 25.6745 18.7658 26.1555 18.3782 26.6357C18.271 26.7616 18.2291 26.8811 18.2825 26.9053C18.3421 26.9233 18.4798 26.8459 18.5872 26.7139C18.9747 26.2756 19.3616 25.8365 19.7551 25.4043C19.7611 25.4103 19.7736 25.4227 19.7795 25.4287C20.0301 26.4254 21.1151 27.9988 22.26 29.2295C22.6834 29.6857 23.1192 30.0635 23.5784 30.4297C23.4055 30.2197 23.2385 30.0158 23.0657 29.7998C23.632 30.3699 24.1927 30.7718 24.759 31.168C24.7948 31.216 24.8306 31.2645 24.8723 31.3125C25.6245 32.4509 26.6924 33.5631 27.6624 34.6826H10.2815C10.9539 33.875 11.6322 33.0708 12.3606 32.2188C14.084 30.2015 15.8078 28.4367 17.6028 26.5576C17.7935 26.3896 17.9846 26.2155 18.1575 26.0234C18.3304 25.8313 18.5031 25.6325 18.676 25.4404C18.8609 25.2483 19.0459 25.0621 19.2307 24.876C19.338 24.984 19.4457 25.0921 19.553 25.2002ZM9.21802 32.0811C8.56831 32.8136 7.92136 33.5468 7.27759 34.2822C7.19261 34.2384 7.10946 34.1918 7.02856 34.1416C7.41573 33.6698 7.80014 33.1975 8.17993 32.7236C8.34678 32.5437 8.50821 32.3694 8.67505 32.1895C8.81817 32.2195 9.00334 32.1771 9.21802 32.0811ZM6.94556 34.0889C6.94201 34.0865 6.93835 34.0844 6.93481 34.082C6.98406 34.0291 7.03401 33.9767 7.08325 33.9238C7.03789 33.9792 6.99102 34.0335 6.94556 34.0889ZM18.134 27.1699C18.1162 27.14 18.0568 27.1639 17.9973 27.2236C16.1249 29.0427 14.2696 30.8918 12.427 32.7529C12.3677 32.8126 12.3317 32.8847 12.3489 32.9092C12.3668 32.9332 12.4329 32.9037 12.4866 32.8438C14.3351 30.9827 16.1776 29.1452 18.05 27.3262C18.1095 27.2663 18.1457 27.1941 18.134 27.1699ZM6.74341 31.8105C6.42709 32.1635 6.11324 32.5182 5.79907 32.8721C5.70172 32.7033 5.61652 32.5264 5.54712 32.3418C6.36594 31.2781 7.22513 30.2173 8.22192 29.1689C8.32328 29.0669 8.42525 28.9593 8.52661 28.8633C7.91843 29.8538 7.3337 30.8321 6.74341 31.8105ZM7.21997 29.9072C6.67377 30.6712 6.0958 31.4219 5.49536 32.1934C5.47236 32.1229 5.4506 32.0518 5.43188 31.9795C6.01035 31.2828 6.60055 30.5899 7.21997 29.9072ZM12.7542 22.1865C12.5515 22.3906 12.4387 22.6248 12.4983 22.7148C12.5281 22.7446 12.5872 22.7445 12.6584 22.7207C12.0026 23.5671 11.3888 24.4258 10.7747 25.2842C10.566 25.5182 10.399 25.7467 10.2678 25.9688C9.38523 26.7853 8.5138 27.6197 7.62524 28.4482L7.39868 28.6465C7.10664 28.9165 6.89182 29.2408 6.84399 29.4629C6.82617 29.5347 6.83215 29.5831 6.84399 29.625C6.34512 30.239 5.84071 30.853 5.33911 31.4668C5.32496 31.3369 5.31763 31.2049 5.31763 31.0713V30.7598C7.1013 28.4351 8.96971 26.1218 11.0549 23.832C11.371 23.4839 11.6871 23.1474 12.009 22.8232C12.0507 22.7932 12.0923 22.7568 12.134 22.7148C12.4441 22.4327 12.7489 22.1503 13.053 21.8682C12.9516 21.9762 12.8555 22.0785 12.7542 22.1865ZM5.31763 9.81055C6.09122 10.5213 6.86175 11.2376 7.67896 12.0039C9.61115 13.8231 11.2873 15.6304 13.0764 17.5156C13.2374 17.7137 13.3984 17.9117 13.5833 18.0918C13.6786 18.1878 13.7739 18.284 13.8752 18.374C13.7501 18.506 13.6313 18.6385 13.5061 18.7705C13.3272 18.6084 13.1479 18.4461 12.969 18.29C12.8499 18.1761 12.7304 18.1339 12.7004 18.1816C12.6826 18.2416 12.7541 18.3801 12.8792 18.4941C13.0342 18.6442 13.1841 18.7942 13.3391 18.9443C13.3272 18.9563 13.3149 18.9685 13.303 18.9805C11.1979 21.5861 9.23536 24.1436 7.29126 26.7793C6.51367 27.8336 5.89371 28.8369 5.31763 29.8262V9.81055ZM35.0002 27.4121C32.7837 25.131 30.5417 22.8833 28.1409 20.6191C27.5207 20.0368 26.918 19.4666 26.3157 18.9082C27.1385 18.3919 28.0629 17.6118 28.844 16.8135C29.2792 16.3694 29.637 15.9127 29.9768 15.4326C29.7743 15.6125 29.5778 15.7927 29.3752 15.9727C29.9119 15.3783 30.2937 14.7952 30.6575 14.2129C30.7049 14.177 30.7468 14.1355 30.7942 14.0938C32.0762 13.1512 33.2988 11.7881 34.551 10.6475C34.4795 10.6295 34.4018 10.6166 34.3303 10.5986C34.5647 10.4189 34.7607 10.3578 35.0002 10.1689V27.4121ZM7.00024 11.9561C6.97639 11.9741 7.00615 12.0406 7.05981 12.1006C8.82493 14.0337 10.5728 15.9725 12.2961 17.9297C12.3557 17.9956 12.4206 18.0314 12.4504 18.0195C12.4742 18.0015 12.4504 17.942 12.3967 17.876C10.6733 15.9128 8.91386 13.9672 7.14868 12.04C7.08926 11.9743 7.02421 11.9384 7.00024 11.9561ZM5.3186 8.57324C5.49303 8.77927 5.67098 8.98658 5.85474 9.19434C7.48268 11.0314 9.18834 12.58 10.8938 14.1289C11.4305 14.7593 11.979 15.378 12.5276 15.9844C12.4025 15.9424 12.301 15.949 12.2473 16.0029C12.2355 16.015 12.2239 16.0388 12.218 16.0566C11.7291 15.5284 11.2335 15.0002 10.7327 14.46C8.94868 12.5465 7.14062 10.741 5.31763 8.99316V8.61133C5.31763 8.59868 5.31847 8.58586 5.3186 8.57324ZM9.47485 5C11.6956 6.88343 13.8979 8.84706 16.0764 11.0312C16.4103 11.3674 16.7262 11.698 17.0422 12.0342C17.072 12.0762 17.1021 12.1241 17.1438 12.166C17.4062 12.4902 17.6802 12.8088 17.9485 13.127C17.8472 13.0249 17.7461 12.9165 17.6448 12.8145C17.4483 12.6047 17.2219 12.4788 17.1321 12.5381C17.1023 12.5681 17.0956 12.6284 17.1194 12.6943C16.3024 11.9979 15.4854 11.3437 14.6565 10.6953C14.4358 10.4792 14.209 10.2984 14.0002 10.1543C13.2251 9.22987 12.4317 8.31701 11.6506 7.39258L11.4661 7.15234C11.2097 6.85233 10.8995 6.61848 10.679 6.56445C10.6134 6.54646 10.5596 6.54661 10.5178 6.55859C9.94361 6.04268 9.36934 5.52172 8.79517 5.00293C8.83951 5.00132 8.88422 5 8.92896 5H9.47485ZM25.6584 5C23.7847 7.02808 21.9318 9.0826 20.0715 11.2598C19.8092 11.5659 19.5466 11.8718 19.2903 12.1719C17.3105 10.4368 15.3305 8.77403 13.303 7.12305C12.2845 6.29299 11.3105 5.62437 10.3489 5H25.6584ZM35.0002 10.1494C34.9178 10.178 34.838 10.2045 34.7542 10.2393C34.76 10.2333 34.7658 10.2267 34.7717 10.2266C34.8477 10.1821 34.9234 10.1313 35.0002 10.0771V10.1494ZM5.96997 6.54102C6.42547 6.95449 6.88147 7.36515 7.33911 7.77148C7.50608 7.94559 7.67898 8.11984 7.84595 8.29395C7.81036 8.43794 7.84062 8.62388 7.92993 8.8457C7.22694 8.15302 6.52057 7.46818 5.81274 6.78516C5.86187 6.70151 5.91448 6.62018 5.96997 6.54102ZM7.88696 5.15234C8.90073 6.0153 9.90959 6.91807 10.8997 7.95703C11.001 8.05904 11.0963 8.16739 11.1917 8.27539C10.2316 7.62702 9.28921 6.99071 8.34106 6.36035C8.0028 6.03068 7.66301 5.70316 7.32446 5.375C7.50401 5.28582 7.692 5.21099 7.88696 5.15234ZM8.25903 5.0625C8.91379 5.66319 9.5641 6.27448 10.2024 6.91309C9.47869 6.33767 8.76783 5.73434 8.03931 5.10938C8.1116 5.09107 8.18508 5.07637 8.25903 5.0625ZM6.2063 6.6123C6.14812 6.55955 6.09062 6.50601 6.03247 6.45312C6.03512 6.44958 6.03762 6.44592 6.04028 6.44238C6.09575 6.49891 6.1508 6.55582 6.2063 6.6123Z" fill="url(#paint0_linear_3_351)"/>
<defs>
<linearGradient id="paint0_linear_3_351" x1="5.31763" y1="19.8413" x2="35.535" y2="12.3181" gradientUnits="userSpaceOnUse">
<stop stop-color="#48F955"/>
<stop offset="1" stop-color="#2B9332"/>
</linearGradient>
</defs>
</svg>
