<svg width="20" height="22" viewBox="0 0 20 22" fill="none" xmlns="http://www.w3.org/2000/svg">
<g clip-path="url(#clip0_3_404)">
<path fill-rule="evenodd" clip-rule="evenodd" d="M3.19033 3.65286C4.79836 2.16766 6.84875 1.25026 9.0277 1.0411C11.2067 0.831926 13.3941 1.3425 15.2553 2.49468C16.8398 3.47523 18.1188 4.8821 18.9501 6.54477C19.7815 8.20744 20.1296 10.0762 19.952 11.9378C19.7797 13.792 19.0931 15.5613 17.9696 17.0464C16.846 18.5315 15.3301 19.6734 13.5927 20.3435C11.8551 21.0141 9.96486 21.1865 8.13465 20.8413C6.30443 20.4961 4.60687 19.647 3.23296 18.3895C1.8554 17.1337 0.8583 15.5162 0.355271 13.7212L4.1922 15.3057C4.3272 15.995 4.718 16.6131 5.28643 17.0324C5.85486 17.4516 6.55119 17.6434 7.25463 17.5724C7.95807 17.5013 8.60466 17.1745 9.07362 16.6558C9.54257 16.1371 9.80547 15.455 9.80547 14.7515V14.6165L13.209 12.1865H13.2942C14.0403 12.1865 14.7722 11.9662 15.3903 11.5541C16.0085 11.142 16.4988 10.5522 16.783 9.863C17.0672 9.17377 17.1454 8.41349 16.9962 7.68164C16.854 6.94978 16.4917 6.27476 15.9659 5.74896C15.4401 5.22316 14.7651 4.86079 14.0332 4.71157C13.3013 4.56236 12.5411 4.64052 11.8518 4.92473C11.1626 5.20895 10.5729 5.69212 10.1536 6.3174C9.74153 6.93557 9.51415 7.66742 9.51415 8.41349V8.46323L7.12673 11.9236H6.97041C6.40198 11.9236 5.84776 12.0941 5.37169 12.4138L0 10.2041C0.198952 7.69585 1.34292 5.35816 3.19033 3.65286ZM5.04485 15.6894L6.27408 16.1939C6.46593 16.2721 6.66488 16.3147 6.87094 16.3147C7.07699 16.3147 7.28305 16.2721 7.46779 16.1939C7.65964 16.1158 7.83017 16.0021 7.97938 15.8529C8.1286 15.7108 8.24228 15.5331 8.32044 15.3484C8.3986 15.1565 8.44123 14.9576 8.44123 14.7515C8.44123 14.5455 8.3986 14.3394 8.32044 14.1547C8.24228 13.9628 8.1286 13.7923 7.97938 13.6431C7.83727 13.4939 7.65964 13.3802 7.4749 13.302L6.20303 12.7762C6.58672 12.627 7.01305 12.5986 7.41095 12.6839C7.81596 12.7691 8.18544 12.9752 8.46966 13.2736C8.76098 13.5649 8.95993 13.9415 9.03809 14.3465C9.11625 14.7515 9.08072 15.1707 8.9244 15.5544C8.76808 15.9381 8.51229 16.2721 8.17123 16.5066C7.83017 16.741 7.43227 16.876 7.02015 16.8903C6.60804 16.9045 6.19592 16.7979 5.84776 16.5847C5.49249 16.3716 5.20827 16.0589 5.03063 15.6823L5.04485 15.6894ZM15.7953 8.43481C15.7953 8.06232 15.7126 7.69448 15.5531 7.35786C15.3936 7.02124 15.1613 6.72425 14.8731 6.48834C14.5848 6.25242 14.2477 6.08348 13.8862 5.99371C13.5247 5.90393 13.1478 5.89557 12.7826 5.96923C12.2924 6.06871 11.8447 6.30318 11.4966 6.65846C11.1413 7.01373 10.9068 7.46137 10.8073 7.94454C10.7101 8.4327 10.7594 8.93873 10.949 9.39895C11.1387 9.85917 11.4602 10.253 11.8731 10.5309C12.2853 10.808 12.7755 10.9572 13.2729 10.9572C13.9408 10.9572 14.5803 10.6943 15.0493 10.2183C15.5182 9.74931 15.7882 9.10982 15.7882 8.44192L15.7953 8.43481ZM11.4042 8.43481C11.4042 8.05822 11.5179 7.69585 11.7239 7.38321C11.9307 7.07163 12.2258 6.82881 12.5713 6.68579C12.9169 6.54276 13.2972 6.50603 13.6637 6.5803C14.0332 6.65135 14.3672 6.83609 14.6301 7.09899C14.893 7.36189 15.0777 7.70295 15.1487 8.06533C15.2198 8.43481 15.1843 8.8114 15.0422 9.15956C14.9001 9.50773 14.6585 9.79905 14.3458 10.0051C14.0867 10.1774 13.7894 10.2836 13.4797 10.3146C13.1701 10.3456 12.8576 10.3003 12.5695 10.1827C12.3421 10.0904 12.1289 9.94826 11.9513 9.77063C11.7737 9.59299 11.6316 9.38694 11.5392 9.15246C11.4468 8.92508 11.3971 8.67639 11.3971 8.4277H11.4113L11.4042 8.43481Z" fill="#090910"/>
</g>
<defs>
<clipPath id="clip0_3_404">
<rect width="20" height="20.0324" fill="white" transform="translate(0 0.983799)"/>
</clipPath>
</defs>
</svg>
