<svg width="10" height="19" viewBox="0 0 10 19" fill="none" xmlns="http://www.w3.org/2000/svg">
<path d="M4.37933 16.0674C3.34919 15.9901 2.48002 15.7519 1.7718 15.3528C1.06358 14.9536 0.484131 14.4449 0.0334473 13.8269L1.42413 12.4941C1.86194 13.0221 2.3255 13.4341 2.81481 13.7303C3.30412 14.0136 3.85782 14.1874 4.4759 14.2518V9.82866L4.03166 9.7514C3.38782 9.63551 2.84056 9.46167 2.38988 9.22989C1.9392 8.99811 1.57221 8.71482 1.28892 8.38003C1.00564 8.04524 0.79961 7.67825 0.670843 7.27907C0.542076 6.86702 0.477693 6.42921 0.477693 5.96565C0.477693 4.87113 0.818925 4.00196 1.50139 3.35812C2.18385 2.70141 3.14317 2.30868 4.37933 2.17991V0.19046H6.00179V2.17991C6.85165 2.27004 7.58562 2.48251 8.2037 2.8173C8.82178 3.1521 9.35616 3.60922 9.80685 4.18867L8.39685 5.46346C8.08781 5.06428 7.72727 4.74237 7.31521 4.49771C6.91603 4.25305 6.44604 4.09853 5.90521 4.03415V8.12894L6.42672 8.2062C7.07055 8.32209 7.61781 8.49592 8.0685 8.7277C8.51918 8.95948 8.88617 9.24277 9.16945 9.57756C9.46562 9.89948 9.67808 10.2665 9.80685 10.6785C9.93562 11.0906 10 11.5284 10 11.9919C10 13.0993 9.65233 14.0071 8.95699 14.7154C8.27452 15.4236 7.28946 15.8549 6.00179 16.0095V18.0375H4.37933V16.0674ZM2.52509 5.90771C2.52509 6.44853 2.67317 6.87346 2.96933 7.1825C3.27837 7.47866 3.78056 7.704 4.4759 7.85852V3.99552C3.17536 4.15004 2.52509 4.78744 2.52509 5.90771ZM7.95261 12.0885C7.95261 11.5091 7.79165 11.0713 7.46973 10.7751C7.16069 10.4661 6.63919 10.2407 5.90521 10.0991V14.2325C6.5748 14.1295 7.08343 13.8977 7.4311 13.5371C7.77877 13.1766 7.95261 12.6937 7.95261 12.0885Z" fill="#9090AF"/>
</svg>
