<svg width="24" height="24" viewBox="0 0 24 24" fill="none" xmlns="http://www.w3.org/2000/svg">
<g clip-path="url(#clip0_20_160)">
<path d="M0 4.00024H24V20.0004H0V4.00024Z" fill="#F0F0F0"/>
<path d="M13.5 4H10.5V10.5H0V13.5H10.5V19.9999H13.5V13.5H24V10.5H13.5V4Z" fill="#D80027"/>
<path d="M18.459 14.7825L24.0003 17.861V14.7825H18.459Z" fill="#0052B4"/>
<path d="M14.6084 14.7825L23.9997 19.9998V18.5245L17.2641 14.7825H14.6084Z" fill="#0052B4"/>
<path d="M21.4982 19.9999L14.6084 16.1719V19.9999H21.4982Z" fill="#0052B4"/>
<path d="M14.6084 14.7825L23.9997 19.9998V18.5245L17.2641 14.7825H14.6084Z" fill="#F0F0F0"/>
<path d="M14.6084 14.7825L23.9997 19.9998V18.5245L17.2641 14.7825H14.6084Z" fill="#D80027"/>
<path d="M4.23473 14.7825L0 17.1351V14.7825H4.23473Z" fill="#0052B4"/>
<path d="M9.39174 15.446V20H1.19531L9.39174 15.446Z" fill="#0052B4"/>
<path d="M6.73561 14.7825L0 18.5245V19.9998L9.39131 14.7825H6.73561Z" fill="#D80027"/>
<path d="M5.54133 9.21748L0 6.13892V9.21748H5.54133Z" fill="#0052B4"/>
<path d="M9.39131 9.21737L0 4V5.47534L6.73561 9.21737H9.39131Z" fill="#0052B4"/>
<path d="M2.50195 4L9.39174 7.828V4H2.50195Z" fill="#0052B4"/>
<path d="M9.39131 9.21737L0 4V5.47534L6.73561 9.21737H9.39131Z" fill="#F0F0F0"/>
<path d="M9.39131 9.21737L0 4V5.47534L6.73561 9.21737H9.39131Z" fill="#D80027"/>
<path d="M19.7646 9.2174L23.9994 6.86475V9.2174H19.7646Z" fill="#0052B4"/>
<path d="M14.6084 8.55395V4H22.8048L14.6084 8.55395Z" fill="#0052B4"/>
<path d="M17.2641 9.21737L23.9997 5.47534V4L14.6084 9.21737H17.2641Z" fill="#D80027"/>
</g>
<defs>
<clipPath id="clip0_20_160">
<rect y="4" width="24" height="16.0003" rx="2" fill="white"/>
</clipPath>
</defs>
</svg>
